<?xml version="1.0" encoding="utf-8"?>
<!-- Generator: Adobe Illustrator 24.0.1, SVG Export Plug-In . SVG Version: 6.00 Build 0)  -->
<svg version="1.1" id="Layer_2_1_" xmlns="http://www.w3.org/2000/svg" xmlns:xlink="http://www.w3.org/1999/xlink" x="0px" y="0px"
	 viewBox="0 0 522.8 129.5" style="enable-background:new 0 0 522.8 129.5;" xml:space="preserve">
<style type="text/css">
	.st0{fill:#1A2774;}
	.st1{fill:#FFFFFF;}
	.st2{fill:#00ADEE;}
</style>
<g>
	<path class="st0" d="M508.1,129.5H14.2c-7.7,0-14-6.3-14-14l0,0c0-7.7,6.3-14,14-14H508c7.7,0,14,6.3,14,14l0,0
		C522,123.3,515.8,129.5,508.1,129.5z"/>
	<g>
		<path class="st1" d="M12.7,115.8c0-4.5,3.4-7.6,8.1-7.6c2.7,0,4.9,1,6.3,2.8l-2.6,2.4c-0.9-1.1-2-1.7-3.5-1.7
			c-2.4,0-4.1,1.7-4.1,4.2s1.7,4.2,4.1,4.2c1.4,0,2.5-0.6,3.5-1.7l2.6,2.4c-1.4,1.8-3.6,2.8-6.3,2.8
			C16.1,123.4,12.7,120.3,12.7,115.8z"/>
		<path class="st1" d="M57.7,111.8h-4.5v11.4h-4.1v-11.4h-4.5v-3.3h13.1V111.8z"/>
		<path class="st1" d="M90,113.9c0,3.3-2.5,5.4-6.5,5.4h-2.6v3.8h-4.1v-14.6h6.7C87.4,108.5,90,110.6,90,113.9z M85.8,113.9
			c0-1.4-0.9-2.2-2.6-2.2h-2.3v4.3h2.3C84.9,116.1,85.8,115.3,85.8,113.9z"/>
		<path class="st1" d="M118.3,120.3h-6.2l-1.2,2.8h-4.2l6.5-14.6h4.1l6.5,14.6h-4.3L118.3,120.3z M117.1,117.3l-1.9-4.7l-1.9,4.7
			H117.1z"/>
		<path class="st1" d="M145.5,108.5l2.6,4l2.6-4h4.8l-4.8,7l5.2,7.7H151l-2.9-4.3l-2.9,4.3h-4.8l5.2-7.5l-4.9-7.2H145.5z"/>
		<path class="st1" d="M173.3,115.8c0-4.4,3.5-7.6,8.1-7.6c4.7,0,8.1,3.2,8.1,7.6s-3.5,7.6-8.1,7.6
			C176.8,123.4,173.3,120.2,173.3,115.8z M185.4,115.8c0-2.5-1.7-4.2-4-4.2c-2.2,0-4,1.7-4,4.2s1.7,4.2,4,4.2
			C183.7,120,185.4,118.4,185.4,115.8z"/>
		<path class="st1" d="M222.3,119c0,2.6-2,4.2-5.8,4.2H209v-14.6h7.1c3.5,0,5.5,1.4,5.5,3.8c0,1.4-0.7,2.6-2,3.2
			C221.3,116,222.3,117.2,222.3,119z M213.1,114.4h2.6c1.2,0,1.8-0.5,1.8-1.4s-0.6-1.4-1.8-1.4h-2.6V114.4z M218.1,118.7
			c0-1-0.6-1.5-1.8-1.5H213v3h3.3C217.5,120.2,218.1,119.7,218.1,118.7z"/>
		<path class="st1" d="M241.7,108.5h4.1v8.6l6-8.6h3.9v14.6h-4.1v-8.5l-6,8.6h-3.9V108.5z"/>
		<path class="st1" d="M276,108.5h4.1v8.6l6-8.6h3.9v14.6h-4.1v-8.5l-6,8.6H276V108.5z M278.7,104.2h2.8c0,1,0.5,1.4,1.5,1.4
			s1.5-0.5,1.5-1.4h2.8c0,2.2-1.3,3.4-4.3,3.4S278.7,106.4,278.7,104.2z"/>
		<path class="st1" d="M333.6,108.5h12.2v3.2h-8.2v2.4h3.8c3.6,0,5.5,1.5,5.5,4.4c0,3-2.2,4.7-6,4.7h-7.3V108.5z M340.6,120.2
			c1.4,0,2.1-0.6,2.1-1.6s-0.7-1.5-2.1-1.5h-3v3.2h3V120.2z"/>
		<path class="st1" d="M379.4,113.9c0,3.3-2.5,5.4-6.5,5.4h-2.6v3.8h-4.1v-14.6h6.7C376.9,108.5,379.4,110.6,379.4,113.9z
			 M375.2,113.9c0-1.4-0.9-2.2-2.6-2.2h-2.3v4.3h2.3C374.4,116.1,375.2,115.3,375.2,113.9z"/>
		<path class="st1" d="M397.7,115.8c0-4.4,3.5-7.6,8.1-7.6c4.7,0,8.1,3.2,8.1,7.6s-3.5,7.6-8.1,7.6
			C401.1,123.4,397.7,120.2,397.7,115.8z M409.8,115.8c0-2.5-1.7-4.2-4-4.2c-2.2,0-4,1.7-4,4.2s1.7,4.2,4,4.2
			C408,120,409.8,118.4,409.8,115.8z"/>
		<path class="st1" d="M439.3,117.5h-1.9v5.6h-4.1v-14.6h4.1v5.7h2l3.5-5.7h4.4l-4.6,7.1l4.6,7.6h-4.7L439.3,117.5z"/>
		<path class="st1" d="M477.5,120v3.2h-11.8v-14.6h11.5v3.2h-7.4v2.5h6.5v3.1h-6.5v2.7h7.7V120z"/>
		<path class="st1" d="M510.2,113.9c0,3.3-2.5,5.4-6.5,5.4h-2.6v3.8H497v-14.6h6.7C507.7,108.5,510.2,110.6,510.2,113.9z M506,113.9
			c0-1.4-0.9-2.2-2.6-2.2h-2.3v4.3h2.3C505.2,116.1,506,115.3,506,113.9z"/>
	</g>
	<path class="st0" d="M19.6,25.3L19.6,25.3C8.8,25.3,0,34.1,0,44.9v25.2h19.6V25.3z"/>
	<path class="st0" d="M55.1,19.7H0.2l0,0C0.2,8.9,9,0.1,19.8,0.1h54.9l0,0C74.7,10.9,65.9,19.7,55.1,19.7z"/>
	<path class="st2" d="M61.8,52.5H28.7V37.3h33.1c4.2,0,7.6,3.4,7.6,7.6l0,0C69.4,49.1,66,52.5,61.8,52.5z"/>
	<g>
		<path class="st2" d="M55.1,70.1H32H19.6H0v9.5c0,5.6,4.5,10.1,10.1,10.1h9.7H32h42.8C74.7,78.9,65.9,70.1,55.1,70.1z"/>
	</g>
	<g>
		<path class="st0" d="M144.7,89.3l-18.5-27.7L108,89.3H79.2l32.5-45.1L80.6,0.1H109l17.9,25.8l17.6-25.8h27.3l-31.1,43.1l33.2,46.2
			L144.7,89.3L144.7,89.3z"/>
		<path class="st0" d="M260.1,33.1c0,20.3-15.3,32.9-39.7,32.9h-15.6v23.3h-25.2V0h40.8C244.8,0.1,260.1,12.7,260.1,33.1z
			 M234.6,33.1c0-8.3-5.2-13.1-15.7-13.1h-14v26.1h14C229.4,46.1,234.6,41.2,234.6,33.1z"/>
		<path class="st0" d="M344,69.8v19.5h-71.7V0h70v19.6h-45v15H337v18.9h-39.7v16.3L344,69.8L344,69.8z"/>
		<path class="st0" d="M397.1,65.6h-13.8v23.7h-25.2V0h40.8c24.4,0,39.7,12.6,39.7,33c0,13.1-6.4,22.8-17.5,28.2l19.3,28.1h-27
			L397.1,65.6z M397.3,20h-14v26.1h14c10.5,0,15.7-4.8,15.7-13C413,24.8,407.8,20,397.3,20z"/>
		<path class="st0" d="M470.2,20.1h-27.4v-20h80v20h-27.3v69.2h-25.2L470.2,20.1L470.2,20.1z"/>
	</g>
</g>
</svg>
